<svg xmlns="http://www.w3.org/2000/svg" viewBox="0 0 1094 352"><defs><style>.cls-1{fill:#fff;}</style></defs><title>logo-stolberg</title><g id="Layer_2" data-name="Layer 2"><g id="Layer_1-2" data-name="Layer 1"><g id="q8fwq7.tif"><path class="cls-1" d="M1021.65,352c-17.2-21.63-38.31-21.39-61.4-10,5.45-30.06,45.3-43.28,86.32-28.43l13.15-16.91-21.2-28.87L1002,296.43c-12.24-14.72-27.09-26.7-50-16.07l-1.46-3.58L963.86,255V150.12c37.22.84,37.24.83,85.15-21.58,11.11,13.4,22.34,27.84,43.67,14,1.6,13.65-6.95,20.93-14.71,28.84,0,24.56-.71,49.16.43,73.67.35,7.56,4.87,15.41,9,22.2,9.54,15.64,9.32,23.93-4.52,36.08-9.69,8.51-20.92,15.25-30.7,23.66-9,7.73-16.95,16.65-25.36,25Zm6.38-92.34,11.12-7.41v-75l-22.63-18.52-12.2,4.11v86.29Z"/><path class="cls-1" d="M384.95,0c14.17,9.24,15.9,14.18,8.06,29.61-12.48,24.6-30.86,44.49-52,61.89-3,2.49-7.19,3.58-11.56,4.3C351.32,70.4,377.73,48.54,386,13.86,363.63.93,343.39,24.14,323.09,15l-.8-4.26L361.65,0Z"/><path class="cls-1" d="M63.21,225.2l11.93-16.07C61,206.56,48.08,205.51,36,201.77c-29.82-9.25-37-36.7-15.43-62.55C26.17,154.56,37,163.67,52,166.85c14,3,28.19,5.14,42.37,2.7l.39-3.32a69.11,69.11,0,0,0-7.52-1.91c-10.65-1.51-21.56-1.86-31.92-4.47C32.76,154.18,22.83,138.41,26,115.3c3.72-27.53,27-49.39,58.71-56,28.23-5.91,53.78.95,78.28,15.54l11.92-7.88L183,74.6l-44.45,47.28,1.19,3.39c5.68.38,11.43.34,17,1.23,11,1.76,22.32,2.79,32.75,6.35,28,9.56,39.19,32.3,27,59.54-7.6,17-20,31.87-31,47.22-7,9.81-15.32,18.63-22.79,28.11-7.15,9.08-14,18.43-20.7,27.36C118.65,289.6,94.8,282.18,70.4,278.8c-24.82-3.44-47.72,7-70.4,18.35,14-44.06,83.18-63.59,153.5-43.8,12.55-14.51,26.34-28.68,32.79-48,4.93-14.8-.67-29.3-14.72-35.7-17.5-8-36.2-6.16-54.69-4.81-1.69.12-3.32,1-5,1.53l2.14,4.2c5.3,0,10.61-.1,15.91,0,6,.14,12.1.11,18.08.82,20.11,2.38,30.34,9.72,32.19,22.63,2,14.26-9.63,33.48-25.06,40.53l2.53-16.66c-19.35-15-41.81-9.25-61.37-10.75-9.8,11.27-17.75,22.08-27.4,31.05-9.4,8.74-21,13.85-34.42,8.47C25.38,243,19.15,236.85,20,226.16c.75-9.88,7-15.9,15.93-18.17,9.59-2.43,17.86.72,23.22,9.63C60.21,219.45,61.14,221.36,63.21,225.2ZM132,106.77c-14-25-40.64-35.17-64.35-25.37C58.34,85.23,51,91.19,51,102.24c0,11.42,7.87,17.55,17.62,19.32,16.24,2.94,32.81,4.1,47.78,5.84Z"/><path class="cls-1" d="M700.93,152.51,690.8,170.08V281c-27.3-4.88-53.81-1-78,16.45-14.69-12.66-30.92-20.82-51.16-17.64L560,276.86l16.82-22.19c0-48.9.15-100.19-.23-151.47,0-5.18-3.25-10.34-4.8-14.91,8.4-2.52,17.25-4.08,25.06-7.83,8-3.85,15-9.83,21.38-14.16v92.92l41.87-27.75c9.4,13.43,20.81,23.32,39.1,18.32Zm-68.29,14.31L616.89,176.9v77.54c12.27.84,18.62,15.12,32.81,12.24V177.45Z"/><path class="cls-1" d="M373.23,297.82c-14.53-12.89-27.84-25.14-49.13-17.2.26-13,7.91-18.94,16.72-24.83-1.63-34.94,2.72-70.07-3.62-105.94,32.05,4.94,61.69-2.3,87.59-23.35,11.44,12.28,20.11,28.82,41.47,19.32,1.57,12.35-6.73,19-13.89,27.25,3,32.88-4.38,67,5,101.27C427.36,270.87,398,275.09,373.23,297.82Zm7.25-133.33v84.87l25,14.12,7.9-3.34V176.3l-21.84-14.89Z"/><path class="cls-1" d="M705,281.53l19.5-25.46c-2.21-33.06,4.34-69.08-4.62-105.22,27.06,3.6,49.26-8.65,71.16-21.56l30.4,59-58.2,34.41v26.67L801,260.82l8.75-7.27,9,7.88L785.9,297.78C761.79,283.84,736,277.27,705,281.53Zm58.5-75.82,17.37-11.49-15.74-31.71-1.62.42Z"/><path class="cls-1" d="M287.84,252l30.73,13.48-36,32.23c-15.09-10.54-29-23.75-50.2-14.64.1-12.61,7.43-20.6,15.22-27.57V164.71l-19.13,5V136.37l18.9,3.37V109.5c16.61,1.52,29.19-7.72,41.24-20.79l-2.23,50.7,25.09-2v31.78l-23.62-4.34Z"/><path class="cls-1" d="M849.14,177.54l-17.92-11.1L864,130c12.74,5.2,18.15,17.94,24.54,32l26.14-31.18,17.54,20.46,14-5.35c2.6,13.18-.55,24.13-11,32.15-12.92,10-25.77,6.53-38.85-3.1l-8.4,8.84v64.49l19.77,9.48,6.73-4,5.75,6.13L884.7,297.58c-15.6-13.18-31.58-24-54.14-14.78.85-14.52,10.1-21.64,18.57-29.15Z"/><path class="cls-1" d="M526.08,254l29.54,13.75-35.7,28.7L474.55,273.2l16.74-19C489,200.49,494.61,144.63,488,90.37l43.78-22.22c-1.83,9.6-5.33,19.71-5.44,29.86C525.77,149.2,526.08,200.4,526.08,254Z"/><path class="cls-1" d="M457.62,70.68C446.14,91,430.34,96,417.91,84.77l-21,4.9-2.23-3.31,4.74-18.48L375.19,89.72c-.23-4.62-1.42-7.82-.31-9.46,18-26.58,36.34-53,54.85-79.77,9.53,6.24,6.87,11.62,3.11,16.52-8.12,10.59-16.58,20.91-24.91,31.33-3.12,3.91-6.24,7.82-8.21,13.23l12.13-7.3c8.71,11.18-7.06,16.2-5.08,25.68,7.74,1.27,10.1-5.16,13.53-10.24,8.69-12.87,18.75-17.13,32.21-13-.12,15.68-13.56,15.92-23.73,19.59C434.88,85.81,437.13,85.29,457.62,70.68Zm-25.69-2.95,3.46,3.33,10.36-6.49-5-5Z"/></g></g></g></svg>