<svg xmlns="http://www.w3.org/2000/svg" viewBox="0 0 1413.19 225.46"><defs><style>.cls-1{fill:#ddbd5c;}.cls-2{fill:#fff;}</style></defs><title>partner</title><g id="Layer_2" data-name="Layer 2"><g id="Layer_1-2" data-name="Layer 1"><g id="tos1eH.tif"><path class="cls-1" d="M112.73,0C174.8,0,225.55,50.7,225.44,112.85A112.58,112.58,0,0,1,112.86,225.46C48.74,225.54-.64,173.05,0,111.6A113,113,0,0,1,112.73,0Zm1,222.47c61.22-.73,110-51.23,108.62-112.26C221,50.42,171.7,2.8,112,3.05S2.77,52.91,3,112.89A109.94,109.94,0,0,0,113.75,222.47Z"/><path class="cls-1" d="M67.05,43.05V102c9.52,2,24.27-.45,33.28-16.3l3.38,1c-2,5.21-5.58,9-9.74,12.7L107.24,124h-4.41l-12.18-22.4C83.34,106,75.43,106.87,67,106.52V124H63.1V39.26c18.33-2.41,34.07,3.29,41.54,21.53a40.44,40.44,0,0,1,1.63,5.86,32.46,32.46,0,0,1,.43,3.34l-3.64-.78C99.57,49.54,83.08,40.84,67.05,43.05Z"/><path class="cls-1" d="M87.43,160V110.52c2.1,2.34,3.95,4.64,3.92,8-.1,11.49,0,23,0,34.48v3.26c21.57,1,40.31-17.67,39.8-39.35-.61-25.72-22.85-39.69-39.65-38.46v8.87l-3.94,3.52V74.41c16.17-1,29.36,4.53,39.06,17.5a42.3,42.3,0,0,1,2.15,47.63C120.18,153.71,103,162.33,87.43,160Z"/><path class="cls-1" d="M162.35,186.43h-3.68V131.59H139.32l1-4h18.19v-26h3.82Z"/><path class="cls-1" d="M115.13,140.11V101.57l3.48-.16v25.73l4.32.77-1.25,3.3-2.9.68A7.68,7.68,0,0,1,115.13,140.11Z"/><path class="cls-1" d="M115.18,160.93l3.44-1.94v27.46l-3.44.16Z"/></g><g id="O5EzPZ.tif"><path class="cls-2" d="M277,75.89c7-.5,13.94-1.51,20.89-1.35a63.8,63.8,0,0,1,16.28,2.7c10.3,3,16.14,10.32,17.11,21,.9,9.84-3.4,17.5-11.3,23.23-.58.42-1.22.78-2.16,1.38l19.81,30.94H318.75l-16.1-26.23H292.45v26.06H277Zm15.43,38.25c4.76-.46,9.21-.49,13.46-1.41a12.35,12.35,0,0,0,9.52-12.07c0-5.52-2.88-9.52-9.11-10.89-4.44-1-9.14-.8-13.87-1.15Z"/><path class="cls-2" d="M428.1,114.88c0,23.28-18,40.7-42.08,40.61-23-.09-41.13-17.11-41.1-40.9,0-23.31,18-40.63,41.38-40.63C410.27,74,428.11,91.44,428.1,114.88Zm-66.41-.13c0,19.86,19,32.64,35.78,23.9,11.06-5.76,14.62-15.6,13.8-27.53-1-15.18-16.12-26.11-30.82-22.26C368.83,91.91,361.68,101.78,361.69,114.76Z"/><path class="cls-2" d="M893.59,153.38V75.81c2.36-.36,4.78-.85,7.23-1.08,9.88-.95,19.79-1.56,29.42,1.47,17.23,5.42,21.4,21.88,9,35a2.81,2.81,0,0,0-.35.63c8.81,4.08,13.13,11.06,12.72,20.6-.37,8.82-5.28,15.12-14.27,18.49-12.36,4.64-25.15,3.65-37.92,3.09C897.62,153.91,895.83,153.62,893.59,153.38ZM909,139.73c7.06,1.23,13.74,1.12,20.23-1.32,4.72-1.77,6.75-5.18,6.33-10.15-.32-3.79-4.07-8.34-8.06-8.6-6.09-.4-12.23-.11-18.5-.11Zm0-32.94a8.29,8.29,0,0,0,1.12.22q5.81,0,11.61,0c4.73,0,8-2.54,8.74-6.81.88-5-1.2-9.51-5.43-11.06a24.87,24.87,0,0,0-16-.66Z"/><path class="cls-2" d="M670,75.43c16.27-2.09,32.19-3.13,46.9,5.5,14.29,8.38,19.56,21.63,18.15,37.41-1.32,14.85-9.45,25.49-23.2,31.49-13.43,5.86-27.5,5.08-41.86,3.79Zm15.72,63.9c12.51,1.78,25.53-3.87,30.31-13,4.59-8.72,3.12-22.06-3.2-29.21-6.14-6.93-19.34-10.81-27.11-7.84Z"/><path class="cls-2" d="M860.07,122.36l19.83,31H861.06L844.83,127H834.71v26.35H819.65V75.55c4.52-.47,9.23-1.09,14-1.41,8.61-.58,17.14,0,25.18,3.39,9,3.84,14.07,10.75,14.72,20.57.64,9.57-3.34,17-11,22.69C861.88,121.29,861.14,121.69,860.07,122.36Zm-25.23-9.17c6.71.9,12.87.39,18.25-3.38,5.66-4,6-13.82.65-18-5.69-4.49-12.23-3.82-18.9-3Z"/><path class="cls-2" d="M574.71,153.8H557.62l-6-12.32H519.91l-5.85,12.32H496.82L533,74.9h5.78ZM545.82,128l-10-23.63L525.69,128Z"/><path class="cls-2" d="M767.33,88.2v18.73h27.21v13.24H767.45v20.21h34.29v12.9h-50v-78h48.62V88.2Z"/><path class="cls-2" d="M475.94,153.74H460.18c-.07-1.44-.18-2.72-.19-4,0-8,.16-16-.11-23.95a16.27,16.27,0,0,0-2.15-7.37C449.46,104.3,441,90.31,432.29,75.8h18.33l17.75,29.74,18-29.85h17.57c-2.52,4.26-4.76,8.13-7.08,12-6.54,10.82-13.15,21.59-19.61,32.45a9.93,9.93,0,0,0-1.26,4.73c-.12,8.22-.06,16.45-.06,24.68C475.94,150.82,475.94,152.13,475.94,153.74Z"/><path class="cls-2" d="M1180.75,154c-24.62-.31-40.83-19.19-40.53-41.25.31-23.1,17.67-40.49,41-40.46a40.19,40.19,0,0,1,40.51,41.08C1221.49,136,1204.84,153.69,1180.75,154Zm1-8.12c17.65-.47,31.05-15.06,30.4-33.6-.68-19.22-15-33-33.21-31.9-16.32,1-29.92,14.82-29.1,35.32A31.11,31.11,0,0,0,1181.72,145.85Z"/><path class="cls-2" d="M999.57,153.46H984.36c-.07-1.35-.18-2.62-.19-3.89,0-8.35.06-16.7-.07-25a9.92,9.92,0,0,0-1.36-4.69c-8.11-13.67-16.33-27.28-24.5-40.92-.6-1-1.08-2.08-1.82-3.52h18.08L992.19,105l18-29.73h17.61c-3.46,5.77-6.65,11.11-9.87,16.43-5.74,9.48-11.55,18.91-17.22,28.44a9.18,9.18,0,0,0-1.14,4.4c-.11,8.23-.05,16.46-.05,24.69C999.57,150.55,999.57,151.85,999.57,153.46Z"/><path class="cls-2" d="M1072.25,152.08h-9V74h8.67v34.24h41.37V74.09h8.94v77.85h-8.68V116.14h-41.32Z"/><path class="cls-2" d="M634.42,140.42v13.33H587.18v-78h15v64.69Z"/><path class="cls-2" d="M1347.83,74v7.45h-36.54v27h29.92v7.35h-30V144.7h38V152h-47.25V74Z"/><path class="cls-2" d="M1253.66,81.62h-24.12V73.87h56.87V81.7h-23.93v70.23h-8.82Z"/><path class="cls-2" d="M1368.54,73.85H1377v70.89h36.2V152h-44.65Z"/></g></g></g></svg>