<svg xmlns="http://www.w3.org/2000/svg" viewBox="0 0 214.2 195.87"><title>logo-small</title><g id="Layer_2" data-name="Layer 2"><g id="Layer_1-2" data-name="Layer 1"><g id="mkFjLM.tif"><path d="M106.57,1.45c19.65.35,35.05,1.6,50.36,4.33a266.57,266.57,0,0,1,35.35,8.78c7.35,2.38,14.5,5.39,21.73,8.14,1.92.73,2.17,2.42,2.1,4.14-.29,7.32-.39,14.66-1,22a180.49,180.49,0,0,1-8.91,41.66,181.19,181.19,0,0,1-12.46,28.84,180.26,180.26,0,0,1-33.86,44.87,166.44,166.44,0,0,1-49.14,32.9,5.2,5.2,0,0,1-3.71-.17,163.28,163.28,0,0,1-44.29-28.57A177.92,177.92,0,0,1,28.5,126.56a189.39,189.39,0,0,1-18-40.49A166.36,166.36,0,0,1,3.22,50.92C2.53,43,2.42,35.13,1.93,27.24c-.14-2.25.63-3.6,2.76-4.35,10.19-3.61,20.26-7.6,30.57-10.82a215.69,215.69,0,0,1,44-8.69C89.73,2.39,100.22,1.89,106.57,1.45ZM9.79,37.87a202.35,202.35,0,0,0,4.91,34.32,174.5,174.5,0,0,0,12,34.87,174.13,174.13,0,0,0,32.09,47,164.73,164.73,0,0,0,46.93,34.3,6.82,6.82,0,0,0,6.57,0A164.85,164.85,0,0,0,150.13,163a170.62,170.62,0,0,0,31.22-37.47,166.66,166.66,0,0,0,18.27-40.09c2.4-8,4.17-16.28,5.94-24.49,2.11-9.72,2.36-19.65,3-29.54a3.81,3.81,0,0,0-2.94-4.3c-9.23-3.08-18.35-6.5-27.69-9.2a240.36,240.36,0,0,0-45.16-8.14,260.21,260.21,0,0,0-46.42.06A238.31,238.31,0,0,0,40.91,18C31.34,20.79,22,24.36,12.53,27.55c-1.88.63-2.92,1.68-2.78,3.83S9.79,35.7,9.79,37.87Z" transform="translate(-1.92 -1.45)"/><path d="M206.5,37.15a190.36,190.36,0,0,1-7.2,43.27,175.09,175.09,0,0,1-31.64,61.3,161.21,161.21,0,0,1-52.26,43c-7.43,3.84-5,3.87-12.3.22a152.59,152.59,0,0,1-32.34-22A167.25,167.25,0,0,1,41,128.78,178.38,178.38,0,0,1,22,90.4,182.14,182.14,0,0,1,12.5,47.85c-.47-4.72-.76-9.46-1.08-14.19-.22-3.23-.11-3.74,3-4.82,9.74-3.38,19.42-7,29.36-9.72a254.44,254.44,0,0,1,86.17-7.81,237.74,237.74,0,0,1,46.2,7.92c9.6,2.67,18.93,6.31,28.39,9.48a2.65,2.65,0,0,1,2,3.2C206.37,33.64,206.5,35.4,206.5,37.15Zm-84.81,68a12.66,12.66,0,0,1,.48-2.8,9,9,0,0,1,7.44-5.56c2.06-.24,4.16-.24,6.23-.44,4.47-.43,7.94-2.34,9.66-6.73.45-1.16.88-2.34,1.28-3.52,1-2.89,2.86-4.32,6-4.12s6.16.15,9.24.2c5.86.1,10-2.79,12.7-7.71a19.37,19.37,0,0,0,1.56-5.93,2.23,2.23,0,0,0-1-1.73c-.29-.18-1.21.33-1.62.75-1.41,1.42-2.77,2.88-4,4.42-2.3,2.78-5.42,3-8.65,2.85-2.28-.13-2.59-.92-1.32-2.79,2.25-3.3,4.38-6.69,6.77-9.88a8.34,8.34,0,0,1,3.5-2.56c4.35-1.71,7.42-9.25,5.3-13.43-.65-1.29-1.64-1.42-2.47-.26-.62.88-1,2-1.66,2.78a27,27,0,0,1-2.63,2.5,18.73,18.73,0,0,1-2.06-2.87c-2.06-4.39-5.16-7.59-10-8.59-1.2-.25-2.59.44-3.89.7.65,1.08,1.25,2.19,2,3.22a8.91,8.91,0,0,0,1.32,1.13c1.94,1.83,3.42,4,3.52,6.69a19.79,19.79,0,0,1-4,13.06,110.19,110.19,0,0,1-7.63,8.25c-1.76,1.86-2.12,1.76-4,0s-4-3.7-6.16-5.43c-.48-.4-1.34-.34-2-.5a5.33,5.33,0,0,0-.28,2.06c.63,2.15,1.45,4.25,2.19,6.37,1.07,3.07.48,4.64-2.19,6.3q-6.69,4.13-13.34,8.35c-3.34,2.11-4.62,1.88-6-1.86a76.06,76.06,0,0,1-2.34-9.41c-.27-1.22-.34-2.48-2.17-2.85a11.79,11.79,0,0,0-.91,2.56c-.44,4.05-.9,8.11-1.08,12.17a9.47,9.47,0,0,0,2.6,6.83c.63.7,1.33,2.07,1,2.68a4.6,4.6,0,0,1-2.65,1.93,14.23,14.23,0,0,1-4,.39c-1.87,0-2.78-1.33-1.91-3,3.5-6.81,3.37-14.13,3-21.46a8.92,8.92,0,0,0-1.09-2.69l-.81.08c-3.15,5.13-1.93,12.2-6.81,16.6a60.81,60.81,0,0,0-5.55-4c-3.41-1.91-7-3.57-10.43-5.35-2-1-2.18-1.66-1.06-3.51,1.47-2.41,3.07-4.75,4.52-7.18a9.22,9.22,0,0,0,1.2-3c.26-1.42-.52-2.2-1.89-1.53a18.4,18.4,0,0,0-4.37,2.81c-1.83,1.68-3.37,3.67-5.07,5.49-1,1.09-2.22,1.65-3.47.42-3.26-3.21-6.8-6.2-9.58-9.79-3.12-4-5.92-8.59-3-14a50.15,50.15,0,0,1,4.44-6.2c.49-.65,1.33-1,1.85-1.66,1.07-1.28.59-2.63-1-2.54a12.76,12.76,0,0,0-5.23,1.24,18.33,18.33,0,0,0-8.57,9.72c-.89,2.23-2.25,2.41-3.58.41-.9-1.35-1.26-3-2-4.52a3,3,0,0,0-1.47-1.44c-.26-.1-1,.69-1.31,1.2a4.64,4.64,0,0,0-.7,2.11c-.12,5.58.5,10.44,7.16,12.76a6.58,6.58,0,0,1,3.13,1.9,96,96,0,0,1,5.48,8.63c1,1.74.43,3-1.42,3.82a7.19,7.19,0,0,1-6.5-.19,13.28,13.28,0,0,1-5.45-6,34.26,34.26,0,0,0-2-3c-.6,1.44-1.18,2.24-1.23,3.06-.35,5.62,1.27,10,6.2,12.61,2.79,1.5,5.75,1.56,8.76,1.3,2.57-.22,5.13-.67,7.7-.87,5.44-.42,6.81.44,8,5.74A5.94,5.94,0,0,0,77,95.33c2.08.53,4.28,1.25,6.36,1.06,5.5-.49,8.71,2.46,11.37,6.62,1.16,1.82.9,3.4-.8,5-.85-.61-1.6-1.24-2.43-1.72a39,39,0,0,0-5.18-2.74,35.63,35.63,0,0,0-4.63-1c-2.1-.5-4.16-1.22-6.28-1.6a2.88,2.88,0,0,0-2.42.79c-.36.52-.08,1.74.29,2.47a56.68,56.68,0,0,0,2.88,5,22.09,22.09,0,0,0,10,8.67c1.36.6,3.14,1,3.89,2.1A79.94,79.94,0,0,1,96,130c1.24,2.5,1.84,5.31,3,7.88s2,4.85.76,7.63a4.68,4.68,0,0,0,1.22,5.5c1.31,1.28,2.65,2.53,4,3.77,1.78,1.62,6.88,2.28,8.62.67a33.2,33.2,0,0,0,5.88-7c1.67-2.77,1.18-3.76-1.1-6.16-.46-.49-1.05-1.39-.89-1.85,1.45-4,2.93-8,4.65-11.82,1.21-2.72,2.75-5.29,4.21-7.9a8.62,8.62,0,0,1,1.73-2.38c3.08-2.64,6.4-5,9.3-7.84a29.34,29.34,0,0,0,4.57-6.42c.55-.94.84-2.74.31-3.4s-2.3-.76-3.4-.52c-4.38,1-8.71,2.13-13,3.31A39.2,39.2,0,0,0,121.69,105.18Z" transform="translate(-1.92 -1.45)"/></g></g></g></svg>