<svg xmlns="http://www.w3.org/2000/svg" viewBox="0 0 206.82 275.77"><defs><style>.cls-1{fill:#323238;}.cls-2{fill:#fff;}</style></defs><title>map-marker</title><g id="Layer_2" data-name="Layer 2"><g id="Layer_1-2" data-name="Layer 1"><path class="cls-1" d="M103.41,0A103.42,103.42,0,0,0,0,103.41c0,57.11,86.18,172.35,103.41,172.35S206.82,160.52,206.82,103.41A103.42,103.42,0,0,0,103.41,0Z"/><g id="Layer_2-2" data-name="Layer 2"><g id="Layer_1-2-2" data-name="Layer 1-2"><g id="mkFjLM.tif"><path class="cls-1" d="M101.5,47.14c15.31.27,27.32,1.25,39.24,3.37a207.74,207.74,0,0,1,27.58,6.84c5.74,1.85,11.3,4.2,16.94,6.34,1.49.57,1.69,1.89,1.64,3.22-.22,5.74-.31,11.43-.82,17.11a140.65,140.65,0,0,1-6.94,32.46A141.2,141.2,0,0,1,169.42,139a140.48,140.48,0,0,1-26.39,35,129.71,129.71,0,0,1-38.3,25.69,4,4,0,0,1-2.89-.13,127.25,127.25,0,0,1-34.52-22.26,138.66,138.66,0,0,1-26.67-32.54A147.55,147.55,0,0,1,26.6,113.09,129.64,129.64,0,0,1,21,85.67c-.54-6.11-.63-12.3-1-18.43a2.94,2.94,0,0,1,2.15-3.39c8-2.77,15.8-5.92,23.84-8.43a168,168,0,0,1,34.31-6.77C88.37,47.88,96.55,47.49,101.5,47.14ZM26.08,75.52a157.69,157.69,0,0,0,3.82,26.75A137.71,137.71,0,0,0,64.28,166.1a128.37,128.37,0,0,0,36.58,26.73,5.31,5.31,0,0,0,5.12,0A128.46,128.46,0,0,0,135.44,173a133,133,0,0,0,24.33-29.13A129.88,129.88,0,0,0,174,112.63c1.87-6.26,3.28-12.69,4.63-19.08,1.64-7.57,1.84-15.31,2.32-23a3,3,0,0,0-2.3-3.35c-7.19-2.4-14.3-5.07-21.58-7.16a187.31,187.31,0,0,0-35.19-6.34,202.78,202.78,0,0,0-36.18,0,185.72,185.72,0,0,0-35.4,6.37C42.87,62.23,35.57,65,28.2,67.5a2.66,2.66,0,0,0-2.16,3c.11,1.68,0,3.36,0,5Z"/><path class="cls-1" d="M179.37,75a148.37,148.37,0,0,1-5.61,33.72,136.45,136.45,0,0,1-24.66,47.77A125.63,125.63,0,0,1,108.38,190c-5.79,3-3.92,3-9.58.17A118.91,118.91,0,0,1,73.59,173a130.34,130.34,0,0,1-23.17-26.66,139,139,0,0,1-14.84-29.91,142,142,0,0,1-7.38-33.15c-.37-3.68-.6-7.38-.82-11.06-.17-2.52-.08-2.92,2.33-3.75C37.31,65.86,44.86,63,52.6,60.92a198.28,198.28,0,0,1,67.1-6.09,185.26,185.26,0,0,1,36,6.17c7.48,2.08,14.76,4.92,22.13,7.38a2.07,2.07,0,0,1,1.57,2.46C179.27,72.23,179.37,73.6,179.37,75Zm-66.1,53a9.89,9.89,0,0,1,.38-2.18,7,7,0,0,1,5.8-4.34c1.64-.19,3.28-.19,4.85-.34,3.48-.34,6.19-1.83,7.53-5.25.35-.9.68-1.82,1-2.74a4.21,4.21,0,0,1,4.7-3.21c2.47.16,4.8.11,7.21.16,4.57.08,7.8-2.17,9.9-6a15.09,15.09,0,0,0,1.21-4.62,1.74,1.74,0,0,0-.82-1.34c-.22-.14-.94.25-1.26.58-1.1,1.11-2.16,2.25-3.15,3.44-1.8,2.17-4.23,2.36-6.74,2.22-1.78-.1-2-.72-1-2.17,1.75-2.57,3.41-5.21,5.28-7.7a6.5,6.5,0,0,1,2.73-2c3.39-1.34,5.78-7.21,4.1-10.47-.51-1-1.28-1.11-1.92-.2-.48.69-.76,1.52-1.3,2.17a21.07,21.07,0,0,1-2,1.94A14.59,14.59,0,0,1,148,83.69c-1.64-3.43-4-5.91-7.8-6.7-.93-.2-2,.34-3,.54.51.82,1,1.71,1.53,2.51a6.94,6.94,0,0,0,1,.89,7.56,7.56,0,0,1,2.74,5.21,15.42,15.42,0,0,1-3,10.18,85.87,85.87,0,0,1-5.94,6.43c-1.38,1.45-1.64,1.37-3.1,0s-3.15-2.89-4.8-4.23c-.38-.31-1-.27-1.57-.39a4.16,4.16,0,0,0-.21,1.64c.49,1.64,1.13,3.28,1.71,5,.82,2.39.38,3.62-1.71,4.92q-5.21,3.22-10.39,6.5c-2.61,1.64-3.6,1.46-4.65-1.45a59.28,59.28,0,0,1-1.82-7.34c-.21-1-.26-1.93-1.69-2.22a9.2,9.2,0,0,0-.7,2c-.34,3.16-.7,6.32-.82,9.48a7.38,7.38,0,0,0,2,5.32c.48.55,1,1.64.82,2.09a3.58,3.58,0,0,1-2.07,1.51,11.09,11.09,0,0,1-3.08.3c-1.46,0-2.16-1-1.49-2.34,2.73-5.3,2.63-11,2.36-16.72a7,7,0,0,0-.82-2.1l-.63.06c-2.46,4-1.51,9.51-5.3,12.94a47.39,47.39,0,0,0-4.32-3.09c-2.74-1.56-5.5-2.84-8.19-4.24-1.53-.82-1.7-1.3-.82-2.74,1.15-1.89,2.39-3.71,3.52-5.6a7.18,7.18,0,0,0,.93-2.31c.2-1.11-.41-1.71-1.48-1.2a14.34,14.34,0,0,0-3.41,2.19c-1.43,1.31-2.62,2.86-4,4.28-.82.82-1.73,1.29-2.71.33a76.2,76.2,0,0,1-7.47-7.62c-2.46-3.13-4.62-6.69-2.32-10.9a39.08,39.08,0,0,1,3.46-4.84c.39-.5,1-.82,1.44-1.3.82-1,.47-2-.82-2a9.94,9.94,0,0,0-4.1,1,14.29,14.29,0,0,0-6.68,7.57c-.7,1.74-1.75,1.88-2.79.32A32.21,32.21,0,0,1,54.37,84a2.38,2.38,0,0,0-1.15-1.12c-.2-.07-.82.53-1,.93a3.62,3.62,0,0,0-.54,1.64c-.1,4.35.39,8.14,5.58,9.94a5.12,5.12,0,0,1,2.46,1.48A74.8,74.8,0,0,1,64,103.64c.78,1.36.34,2.37-1.11,3a5.61,5.61,0,0,1-5.07-.15,10.35,10.35,0,0,1-4.25-4.69,26.7,26.7,0,0,0-1.64-2.34,9.91,9.91,0,0,0-1,2.39c-.27,4.39,1,7.76,4.83,9.84a11.77,11.77,0,0,0,6.83,1c2-.17,4-.52,6-.67,4.24-.33,5.3.34,6.23,4.47a4.63,4.63,0,0,0,3.62,3.84,15,15,0,0,0,4.92.82c4.28-.38,6.79,1.92,8.86,5.16.91,1.42.7,2.65-.62,3.92-.66-.48-1.25-1-1.89-1.34a30.33,30.33,0,0,0-4-2.14,27.76,27.76,0,0,0-3.61-.75c-1.64-.39-3.28-1-4.92-1.25a2.25,2.25,0,0,0-1.89.61c-.29.4-.06,1.35.22,1.93a44.17,44.17,0,0,0,2.25,3.87,17.21,17.21,0,0,0,7.83,6.75c1.06.47,2.46.82,3,1.64a62.3,62.3,0,0,1,4.56,7.79c1,2,1.43,4.14,2.31,6.14s1.57,3.78.6,6a3.65,3.65,0,0,0,1,4.29c1,1,2.07,2,3.12,2.93,1.39,1.26,5.36,1.78,6.71.52a25.87,25.87,0,0,0,4.58-5.43c1.3-2.16.92-2.93-.82-4.8-.36-.38-.82-1.08-.69-1.43,1.12-3.1,2.29-6.2,3.62-9.21.94-2.12,2.15-4.1,3.28-6.16a6.71,6.71,0,0,1,1.34-1.85c2.39-2.06,5-3.91,7.25-6.11a22.86,22.86,0,0,0,3.57-5c.43-.74.66-2.14.25-2.65s-1.8-.59-2.65-.4c-3.41.75-6.79,1.64-10.16,2.57A30.55,30.55,0,0,0,113.28,128Z"/></g><path class="cls-2" d="M183.36,72.68a156,156,0,0,1-5.9,35.47,143.53,143.53,0,0,1-25.94,50.25,132.15,132.15,0,0,1-42.84,35.25c-6.09,3.15-4.1,3.17-10.08.18a125.08,125.08,0,0,1-26.51-18,137.1,137.1,0,0,1-24.37-28,146.23,146.23,0,0,1-15.58-31.46,149.31,149.31,0,0,1-7.81-34.84c-.39-3.87-.62-7.75-.89-11.63-.18-2.65-.09-3.07,2.46-4,8-2.77,15.93-5.74,24.07-8a208.58,208.58,0,0,1,70.64-6.4A194.89,194.89,0,0,1,158.48,58c7.87,2.19,15.52,5.17,23.27,7.77a2.17,2.17,0,0,1,1.65,2.59v0C183.26,69.8,183.36,71.24,183.36,72.68Z"/><g id="mkFjLM.tif-2"><path class="cls-1" d="M179.14,74.54a147.8,147.8,0,0,1-5.59,33.61A135.94,135.94,0,0,1,149,155.74a125.16,125.16,0,0,1-40.58,33.41c-5.74,3-3.9,3-9.55.17a118.48,118.48,0,0,1-25.11-17.07A129.85,129.85,0,0,1,50.63,145.7a138.54,138.54,0,0,1-14.76-29.8,141.41,141.41,0,0,1-7.38-33c-.37-3.66-.59-7.38-.82-11-.17-2.51-.08-2.9,2.32-3.74,7.56-2.62,15.08-5.45,22.8-7.54a197.56,197.56,0,0,1,66.89-6.06,184.58,184.58,0,0,1,35.87,6.15c7.45,2.07,14.69,4.92,22,7.38a2.06,2.06,0,0,1,1.57,2.45h0C179,71.82,179.14,73.19,179.14,74.54Zm-65.85,52.82a9.84,9.84,0,0,1,.38-2.17,7,7,0,0,1,5.74-4.32c1.64-.19,3.23-.19,4.84-.34,3.47-.34,6.16-1.82,7.5-5.23.35-.9.68-1.81,1-2.73a4.19,4.19,0,0,1,4.68-3.2c2.46.16,4.79.11,7.18.16,4.55.08,7.76-2.16,9.84-6a15,15,0,0,0,1.21-4.6,1.73,1.73,0,0,0-.82-1.34c-.22-.14-.94.25-1.26.58-1.09,1.1-2.16,2.24-3.14,3.43-1.79,2.16-4.21,2.35-6.71,2.21-1.77-.1-2-.72-1-2.16,1.75-2.56,3.4-5.19,5.25-7.67a6.48,6.48,0,0,1,2.71-2c3.38-1.33,5.74-7.18,4.1-10.43-.51-1-1.27-1.11-1.92-.2-.48.68-.76,1.52-1.29,2.16a21,21,0,0,1-2,1.94A14.54,14.54,0,0,1,148,83.21c-1.64-3.41-4-5.89-7.77-6.67-.93-.19-2,.34-3,.54.5.82,1,1.71,1.52,2.5a6.92,6.92,0,0,0,1,.88,7.53,7.53,0,0,1,2.73,5.21,15.36,15.36,0,0,1-3.13,10.14,85.55,85.55,0,0,1-5.92,6.4c-1.37,1.44-1.64,1.37-3.09,0s-3.14-2.87-4.79-4.21c-.38-.31-1-.26-1.57-.39a4.1,4.1,0,0,0-.21,1.6c.49,1.64,1.12,3.28,1.7,4.92.82,2.39.38,3.61-1.71,4.92q-5.2,3.21-10.36,6.48c-2.6,1.64-3.58,1.46-4.63-1.44a59,59,0,0,1-1.82-7.3c-.21-1-.26-1.93-1.68-2.21a9.16,9.16,0,0,0-.7,2c-.34,3.15-.7,6.3-.82,9.45a7.38,7.38,0,0,0,2,5.3c.48.55,1,1.64.82,2.08a3.57,3.57,0,0,1-2.06,1.5,11.05,11.05,0,0,1-3.07.3c-1.45,0-2.16-1-1.48-2.34,2.72-5.29,2.62-11,2.35-16.67a6.93,6.93,0,0,0-.82-2.09l-.63.06c-2.46,4-1.5,9.47-5.29,12.89a47.22,47.22,0,0,0-4.36-3.1c-2.65-1.48-5.4-2.77-8.1-4.16-1.52-.82-1.7-1.3-.82-2.72,1.15-1.88,2.39-3.69,3.52-5.57a7.16,7.16,0,0,0,.93-2.3c.2-1.1-.41-1.71-1.47-1.19a14.29,14.29,0,0,0-3.39,2.18c-1.42,1.3-2.61,2.84-3.93,4.26-.82.82-1.73,1.28-2.7.33a77.52,77.52,0,0,1-7.44-7.6c-2.46-3.12-4.6-6.66-2.31-10.86A38.94,38.94,0,0,1,69,81.49c.39-.5,1-.82,1.44-1.29.82-1,.46-2-.82-2a9.91,9.91,0,0,0-4.06,1,14.23,14.23,0,0,0-6.66,7.55c-.69,1.73-1.75,1.87-2.78.32a32.09,32.09,0,0,1-1.55-3.51,2.36,2.36,0,0,0-1.15-1.11c-.2-.07-.82.53-1,.93A3.6,3.6,0,0,0,51.87,85c-.1,4.34.39,8.11,5.56,9.9a5.11,5.11,0,0,1,2.46,1.48,74.52,74.52,0,0,1,4.25,6.71c.77,1.35.33,2.36-1.1,3a5.58,5.58,0,0,1-5-.15,10.31,10.31,0,0,1-4.25-4.67,26.59,26.59,0,0,0-1.57-2.34,9.84,9.84,0,0,0-1,2.38c-.26,4.38,1,7.75,4.8,9.8a11.69,11.69,0,0,0,6.8,1c2-.17,4-.52,6-.67,4.22-.33,5.29.34,6.21,4.45a4.61,4.61,0,0,0,3.6,3.83,15.13,15.13,0,0,0,4.92.82c4.26-.38,6.76,1.91,8.82,5.14.9,1.42.7,2.64-.62,3.9-.66-.47-1.24-1-1.89-1.34a30.26,30.26,0,0,0-4-2.13,27.66,27.66,0,0,0-3.57-.73c-1.64-.39-3.23-1-4.87-1.24a2.24,2.24,0,0,0-1.88.61c-.28.4-.06,1.35.22,1.92A44,44,0,0,0,78,130.51a17.15,17.15,0,0,0,7.8,6.73c1.06.47,2.46.82,3,1.64a62.06,62.06,0,0,1,4.54,7.75c1,1.94,1.43,4.1,2.3,6.12s1.57,3.77.59,5.93a3.64,3.64,0,0,0,1,4.27c1,1,2.06,2,3.11,2.93,1.38,1.26,5.34,1.77,6.69.52a25.77,25.77,0,0,0,4.57-5.41c1.3-2.15.92-2.92-.82-4.78-.36-.38-.82-1.08-.69-1.43,1.12-3.09,2.28-6.17,3.61-9.17.93-2.11,2.14-4.1,3.28-6.13a6.69,6.69,0,0,1,1.34-1.84c2.39-2,5-3.89,7.22-6.09a22.77,22.77,0,0,0,3.49-5c.43-.73.66-2.13.25-2.64s-1.79-.59-2.64-.4c-3.39.75-6.76,1.64-10.12,2.57A30.44,30.44,0,0,0,113.28,127.35Z"/></g></g></g></g></g></svg>